HIERARCHY
ROOT Hips
{
    OFFSET 0.000000 0.000000 0.000000
    CHANNELS 6 Xposition Yposition Zposition Zrotation Xrotation Yrotation
    JOINT Spine
    {
        OFFSET -0.000000 7.236184 0.000000
        CHANNELS 3 Zrotation Xrotation Yrotation
        JOINT Spine1
        {
            OFFSET -0.000000 20.420147 0.000000
            CHANNELS 3 Zrotation Xrotation Yrotation
            JOINT Neck
            {
                OFFSET -0.000000 20.336288 1.848754
                CHANNELS 3 Zrotation Xrotation Yrotation
                JOINT Head
                {
                    OFFSET -0.000000 12.354461 -1.764923
                    CHANNELS 3 Zrotation Xrotation Yrotation
                    End Site
                    {
                        OFFSET -0.000000 22.061537 0.000000
                    }
                }
            }
            JOINT LeftShoulder
            {
                OFFSET 3.573296 18.396038 -0.314103
                CHANNELS 3 Zrotation Xrotation Yrotation
                JOINT LeftArm
                {
                    OFFSET 10.880760 0.000000 0.000000
                    CHANNELS 3 Zrotation Xrotation Yrotation
                    JOINT LeftForeArm
                    {
                        OFFSET 27.185530 0.000000 0.000000
                        CHANNELS 3 Zrotation Xrotation Yrotation
                        JOINT LeftHand
                        {
                            OFFSET 27.825975 0.000000 0.000000
                            CHANNELS 3 Zrotation Xrotation Yrotation
                            End Site
                            {
                                OFFSET 13.236923 0.000000 0.000000
                            }
                        }
                    }
                }
            }
            JOINT RightShoulder
            {
                OFFSET -3.474926 18.396038 -0.314103
                CHANNELS 3 Zrotation Xrotation Yrotation
                JOINT RightArm
                {
                    OFFSET -10.880760 0.000000 0.000000
                    CHANNELS 3 Zrotation Xrotation Yrotation
                    JOINT RightForeArm
                    {
                        OFFSET -27.185530 0.000000 0.000000
                        CHANNELS 3 Zrotation Xrotation Yrotation
                        JOINT RightHand
                        {
                            OFFSET -27.825975 0.000000 0.000000
                            CHANNELS 3 Zrotation Xrotation Yrotation
                            End Site
                            {
                                OFFSET -13.236923 0.000000 0.000000
                            }
                        }
                    }
                }
            }
        }
    }
    JOINT LeftUpLeg
    {
        OFFSET 8.824615 0.000000 0.000000
        CHANNELS 3 Zrotation Xrotation Yrotation
        JOINT LeftLeg
        {
            OFFSET -0.000000 -35.111282 0.000000
            CHANNELS 3 Zrotation Xrotation Yrotation
            JOINT LeftFoot
            {
                OFFSET -0.000000 -42.324711 0.000000
                CHANNELS 3 Zrotation Xrotation Yrotation
                JOINT LeftToeBase
                {
                    OFFSET -0.000000 -5.735999 13.236923
                    CHANNELS 3 Zrotation Xrotation Yrotation
                    End Site
                    {
                        OFFSET -0.000000 0.000000 3.529846
                    }
                }
            }
        }
    }
    JOINT RightUpLeg
    {
        OFFSET -8.824615 0.000000 0.000000
        CHANNELS 3 Zrotation Xrotation Yrotation
        JOINT RightLeg
        {
            OFFSET -0.000000 -35.111282 0.000000
            CHANNELS 3 Zrotation Xrotation Yrotation
            JOINT RightFoot
            {
                OFFSET -0.000000 -42.324711 0.000000
                CHANNELS 3 Zrotation Xrotation Yrotation
                JOINT RightToeBase
                {
                    OFFSET -0.000000 -5.735999 13.236923
                    CHANNELS 3 Zrotation Xrotation Yrotation
                    End Site
                    {
                        OFFSET -0.000000 0.000000 3.529846
                    }
                }
            }
        }
    }
}
MOTION
Frames:    12
Frame Time:    0.008333
9.625170    80.790833    110.096016    -1.496572    -4.788816    -172.489883    -3.256862    -13.586803    -0.510826    0.891939    5.239773    -0.163544    2.157931    9.214395    -1.789928    4.039488    0.115889    -1.431551    1.424129    17.176029    -2.760990    -45.312309    47.208935    -40.645229    -1.878501    -1.065037    -18.894192    16.256481    -1.207879    1.188774    7.628742    18.400036    -6.413195    40.273869    47.297302    38.280609    1.246659    -8.607663    11.889977    -16.473406    -8.064659    -4.685510    3.467774    -9.982073    0.650919    -0.680933    15.654909    -3.242526    -4.653023    -9.541625    -5.384800    -0.788039    0.308079    0.873028    -5.859222    -0.361816    3.911614    4.802221    5.126799    7.841714    -2.644389    -6.631683    -17.903589    -0.007320    -0.542405    0.007924    
9.664963    80.789787    110.088989    -1.499056    -4.812925    -172.475342    -3.266819    -13.581090    -0.512642    0.887708    5.237447    -0.164257    2.148053    9.198462    -1.788393    4.035765    0.095900    -1.429466    1.418223    17.185322    -2.756685    -45.345757    47.200397    -40.615204    -1.891640    -1.105433    -18.880131    16.404839    -1.244998    1.213995    7.625674    18.398460    -6.419916    40.443317    47.189793    38.183170    1.236241    -8.679038    11.808692    -16.520636    -8.132803    -4.681461    3.490709    -9.992820    0.646314    -0.682600    15.628234    -3.230813    -4.672930    -9.529385    -5.408638    -0.801207    0.310134    0.887613    -5.818462    -0.412642    3.884847    4.774836    5.177841    7.676689    -2.628993    -6.669116    -17.726271    -0.010023    -0.536743    0.010849    
9.704573    80.788788    110.081947    -1.501603    -4.837264    -172.460571    -3.276648    -13.575568    -0.514449    0.883243    5.235088    -0.164943    2.138162    9.182357    -1.786883    4.032291    0.076286    -1.427360    1.412072    17.195095    -2.752018    -45.379463    47.190266    -40.584885    -1.905769    -1.147294    -18.866123    16.547577    -1.283664    1.239570    7.622727    18.396835    -6.426720    40.612549    47.082096    38.085575    1.225588    -8.751183    11.727436    -16.567024    -8.201848    -4.676787    3.513390    -10.003394    0.641511    -0.684342    15.600840    -3.219511    -4.693193    -9.516734    -5.431960    -0.814258    0.311905    0.902068    -5.778246    -0.464915    3.858090    4.747997    5.231421    7.513698    -2.613975    -6.707556    -17.551380    -0.012726    -0.531116    0.013775    
9.743311    80.787888    110.074951    -1.504135    -4.861618    -172.445587    -3.286001    -13.570412    -0.516198    0.878490    5.232661    -0.165614    2.128848    9.166309    -1.785285    4.028387    0.057672    -1.425310    1.405308    17.204939    -2.746980    -45.414261    47.177250    -40.553234    -1.921755    -1.190713    -18.851957    16.678007    -1.324308    1.265126    7.620100    18.395578    -6.433967    40.778057    46.976101    37.989960    1.215305    -8.823827    11.647023    -16.610952    -8.271783    -4.670635    3.535512    -10.013398    0.636430    -0.686376    15.572423    -3.209131    -4.712124    -9.503646    -5.453663    -0.826750    0.313945    0.915904    -5.739640    -0.518717    3.832555    4.723046    5.288386    7.357887    -2.601038    -6.747018    -17.385555    -0.015501    -0.524993    0.016779    
9.781218    80.787102    110.067978    -1.506714    -4.886320    -172.430038    -3.294876    -13.565590    -0.518280    0.873297    5.229931    -0.166005    2.119912    9.149734    -1.783582    4.024320    0.040642    -1.423264    1.397719    17.215582    -2.741118    -45.449715    47.160439    -40.520672    -1.939833    -1.236486    -18.837887    16.793314    -1.367738    1.290873    7.617562    18.394344    -6.441621    40.940292    46.872551    37.895733    1.205600    -8.897672    11.567571    -16.652142    -8.343369    -4.662621    3.556956    -10.022943    0.631075    -0.688573    15.542615    -3.200320    -4.732005    -9.489738    -5.473890    -0.838907    0.315744    0.929369    -5.702952    -0.574635    3.808506    4.700533    5.349364    7.209888    -2.590754    -6.787667    -17.230146    -0.018402    -0.518082    0.019918    
9.818260    80.786446    110.060974    -1.509442    -4.911573    -172.413635    -3.303408    -13.561275    -0.519942    0.867890    5.226923    -0.167113    2.111465    9.133143    -1.781663    4.019611    0.024518    -1.421110    1.388893    17.226686    -2.734599    -45.486423    47.139313    -40.486130    -1.960353    -1.284600    -18.823893    16.891193    -1.414009    1.316683    7.615209    18.393574    -6.449972    41.097347    46.772263    37.804119    1.196623    -8.973451    11.489254    -16.688843    -8.417581    -4.652030    3.577614    -10.032096    0.625395    -0.691088    15.511154    -3.193385    -4.749660    -9.475186    -5.491963    -0.850527    0.317426    0.942239    -5.668790    -0.631965    3.786538    4.681285    5.413028    7.071437    -2.583644    -6.828965    -17.087790    -0.021473    -0.510474    0.023242    
9.854609    80.785927    110.053925    -1.512228    -4.937418    -172.395950    -3.311310    -13.557082    -0.522289    0.861816    5.223441    -0.168122    2.103580    9.116130    -1.779247    4.014171    0.009573    -1.418715    1.378735    17.238802    -2.727169    -45.523643    47.113319    -40.450077    -1.983326    -1.334837    -18.810268    16.971140    -1.463021    1.342775    7.612851    18.392805    -6.458554    41.249081    46.676182    37.714561    1.188896    -9.051717    11.412497    -16.720606    -8.495057    -4.638611    3.597653    -10.040800    0.619717    -0.693756    15.477707    -3.188952    -4.768200    -9.459467    -5.508793    -0.862179    0.318843    0.955145    -5.637262    -0.688910    3.766446    4.665707    5.476120    6.944294    -2.580207    -6.869289    -16.960291    -0.024696    -0.501996    0.026730    
9.889828    80.785522    110.046814    -1.515179    -4.963738    -172.376846    -3.318595    -13.553201    -0.524934    0.855151    5.219512    -0.169610    2.096534    9.099095    -1.776283    4.007611    -0.004353    -1.415907    1.367141    17.251728    -2.719097    -45.560684    47.083111    -40.412750    -2.008007    -1.386033    -18.797398    17.032227    -1.513400    1.368986    7.610715    18.392015    -6.467463    41.392170    46.586918    37.628902    1.182530    -9.131404    11.338486    -16.746243    -8.574839    -4.622065    3.616710    -10.048969    0.614248    -0.696592    15.442521    -3.187568    -4.785521    -9.442983    -5.523874    -0.873733    0.319957    0.967943    -5.609457    -0.741829    3.748235    4.654665    5.532562    6.834013    -2.580768    -6.905825    -16.853050    -0.028233    -0.492674    0.030557    
9.924244    80.785255    110.039612    -1.518304    -4.990766    -172.355850    -3.325200    -13.549579    -0.528208    0.847603    5.215320    -0.171654    2.090447    9.081053    -1.772417    3.999506    -0.016588    -1.412578    1.354231    17.265520    -2.710247    -45.596878    47.048817    -40.374428    -2.034481    -1.437801    -18.785505    17.075216    -1.564892    1.395107    7.608425    18.391256    -6.476609    41.526237    46.504868    37.547352    1.177817    -9.212283    11.267743    -16.766209    -8.656625    -4.602981    3.634868    -10.056817    0.609421    -0.699295    15.405309    -3.189756    -4.802108    -9.425409    -5.537846    -0.885532    0.320826    0.981013    -5.585289    -0.788351    3.730826    4.648018    5.577604    6.741980    -2.585544    -6.936260    -16.766632    -0.032180    -0.482550    0.034829    
9.957829    80.785080    110.032257    -1.521723    -5.018476    -172.332748    -3.331105    -13.546004    -0.532074    0.838980    5.210619    -0.174468    2.085341    9.062647    -1.767574    3.989931    -0.027717    -1.408542    1.339859    17.280134    -2.700857    -45.631313    47.011478    -40.335423    -2.061938    -1.489630    -18.774858    17.100407    -1.616887    1.420878    7.606306    18.390373    -6.485677    41.650269    46.431210    37.469994    1.174753    -9.292398    11.200839    -16.781950    -8.738190    -4.582759    3.652057    -10.064315    0.605407    -0.702053    15.366096    -3.195549    -4.817368    -9.406742    -5.550981    -0.897597    0.320923    0.994378    -5.564916    -0.826434    3.713913    4.645508    5.607928    6.669451    -2.594059    -6.959298    -16.701954    -0.036485    -0.471816    0.039488    
9.990438    80.785027    110.024773    -1.525270    -5.046656    -172.307388    -3.336105    -13.542500    -0.536457    0.829236    5.205558    -0.178338    2.081571    9.044230    -1.761655    3.978440    -0.038292    -1.403769    1.324410    17.295782    -2.691375    -45.662529    46.971912    -40.296928    -2.089691    -1.540830    -18.765802    17.108656    -1.668585    1.445927    7.604226    18.389442    -6.494279    41.762669    46.366955    37.397461    1.173487    -9.368828    11.139047    -16.795479    -8.816277    -4.563255    3.668347    -10.071400    0.602857    -0.704623    15.325041    -3.205045    -4.832385    -9.386875    -5.564187    -0.910039    0.320795    1.008161    -5.547970    -0.854917    3.697122    4.646541    5.621540    6.615243    -2.605673    -6.973995    -16.657391    -0.041166    -0.460119    0.044553    
10.022214    80.785080    110.017082    -1.529099    -5.075377    -172.279526    -3.340274    -13.538824    -0.541984    0.818106    5.199949    -0.182727    2.079212    9.025307    -1.754634    3.964907    -0.047712    -1.398258    1.307933    17.311708    -2.682058    -45.690544    46.931293    -40.258427    -2.117730    -1.590970    -18.758177    17.102034    -1.719671    1.470188    7.602304    18.388014    -6.502386    41.863865    46.312580    37.328991    1.173897    -9.439555    11.082676    -16.808615    -8.888620    -4.545619    3.683723    -10.078243    0.601928    -0.707098    15.282358    -3.218704    -4.845505    -9.366108    -5.577012    -0.922812    0.320050    1.022313    -5.534078    -0.873719    3.680161    4.650288    5.618280    6.576314    -2.619551    -6.980450    -16.629782    -0.046223    -0.448492    0.050025    
